<svg id="visual" viewBox="0 0 900 600" width="900" height="600" xmlns="http://www.w3.org/2000/svg" xmlns:xlink="http://www.w3.org/1999/xlink" version="1.1"><path d="M743 0L586 0L586 40L744 40L744 80L542 80L542 120L650 120L650 160L708 160L708 200L536 200L536 240L594 240L594 280L578 280L578 320L715 320L715 360L723 360L723 400L681 400L681 440L596 440L596 480L620 480L620 520L635 520L635 560L733 560L733 600L0 600L0 560L0 560L0 520L0 520L0 480L0 480L0 440L0 440L0 400L0 400L0 360L0 360L0 320L0 320L0 280L0 280L0 240L0 240L0 200L0 200L0 160L0 160L0 120L0 120L0 80L0 80L0 40L0 40L0 0L0 0Z" fill="#4dc6c7"></path><path d="M406 0L456 0L456 40L544 40L544 80L551 80L551 120L493 120L493 160L475 160L475 200L446 200L446 240L462 240L462 280L541 280L541 320L448 320L448 360L567 360L567 400L467 400L467 440L479 440L479 480L566 480L566 520L527 520L527 560L545 560L545 600L0 600L0 560L0 560L0 520L0 520L0 480L0 480L0 440L0 440L0 400L0 400L0 360L0 360L0 320L0 320L0 280L0 280L0 240L0 240L0 200L0 200L0 160L0 160L0 120L0 120L0 80L0 80L0 40L0 40L0 0L0 0Z" fill="#36a5a7"></path><path d="M342 0L313 0L313 40L352 40L352 80L288 80L288 120L408 120L408 160L377 160L377 200L387 200L387 240L257 240L257 280L404 280L404 320L394 320L394 360L384 360L384 400L305 400L305 440L287 440L287 480L372 480L372 520L339 520L339 560L401 560L401 600L0 600L0 560L0 560L0 520L0 520L0 480L0 480L0 440L0 440L0 400L0 400L0 360L0 360L0 320L0 320L0 280L0 280L0 240L0 240L0 200L0 200L0 160L0 160L0 120L0 120L0 80L0 80L0 40L0 40L0 0L0 0Z" fill="#1f8587"></path><path d="M223 0L172 0L172 40L110 40L110 80L135 80L135 120L199 120L199 160L230 160L230 200L216 200L216 240L172 240L172 280L146 280L146 320L132 320L132 360L203 360L203 400L230 400L230 440L136 440L136 480L124 480L124 520L242 520L242 560L204 560L204 600L0 600L0 560L0 560L0 520L0 520L0 480L0 480L0 440L0 440L0 400L0 400L0 360L0 360L0 320L0 320L0 280L0 280L0 240L0 240L0 200L0 200L0 160L0 160L0 120L0 120L0 80L0 80L0 40L0 40L0 0L0 0Z" fill="#006669"></path></svg>