<svg id="visual" viewBox="0 0 900 600" width="900" height="600" xmlns="http://www.w3.org/2000/svg" xmlns:xlink="http://www.w3.org/1999/xlink" version="1.1"><path d="M0 97L16.7 107C33.3 117 66.7 137 100 141C133.3 145 166.7 133 200 119C233.3 105 266.7 89 300 73C333.3 57 366.7 41 400 54C433.3 67 466.7 109 500 113C533.3 117 566.7 83 600 62C633.3 41 666.7 33 700 47C733.3 61 766.7 97 800 103C833.3 109 866.7 85 883.3 73L900 61L900 0L883.3 0C866.7 0 833.3 0 800 0C766.7 0 733.3 0 700 0C666.7 0 633.3 0 600 0C566.7 0 533.3 0 500 0C466.7 0 433.3 0 400 0C366.7 0 333.3 0 300 0C266.7 0 233.3 0 200 0C166.7 0 133.3 0 100 0C66.7 0 33.3 0 16.7 0L0 0Z" fill="#8dd8d8"></path><path d="M0 139L16.7 146C33.3 153 66.7 167 100 170C133.3 173 166.7 165 200 150C233.3 135 266.7 113 300 107C333.3 101 366.7 111 400 129C433.3 147 466.7 173 500 176C533.3 179 566.7 159 600 145C633.3 131 666.7 123 700 138C733.3 153 766.7 191 800 197C833.3 203 866.7 177 883.3 164L900 151L900 59L883.3 71C866.7 83 833.3 107 800 101C766.7 95 733.3 59 700 45C666.7 31 633.3 39 600 60C566.7 81 533.3 115 500 111C466.7 107 433.3 65 400 52C366.7 39 333.3 55 300 71C266.7 87 233.3 103 200 117C166.7 131 133.3 143 100 139C66.7 135 33.3 115 16.7 105L0 95Z" fill="#70cfcf"></path><path d="M0 301L16.7 295C33.3 289 66.7 277 100 282C133.3 287 166.7 309 200 297C233.3 285 266.7 239 300 212C333.3 185 366.7 177 400 198C433.3 219 466.7 269 500 272C533.3 275 566.7 231 600 208C633.3 185 666.7 183 700 200C733.3 217 766.7 253 800 271C833.3 289 866.7 289 883.3 289L900 289L900 149L883.3 162C866.7 175 833.3 201 800 195C766.7 189 733.3 151 700 136C666.7 121 633.3 129 600 143C566.7 157 533.3 177 500 174C466.7 171 433.3 145 400 127C366.7 109 333.3 99 300 105C266.7 111 233.3 133 200 148C166.7 163 133.3 171 100 168C66.7 165 33.3 151 16.7 144L0 137Z" fill="#4dc6c7"></path><path d="M0 433L16.7 426C33.3 419 66.7 405 100 398C133.3 391 166.7 391 200 414C233.3 437 266.7 483 300 478C333.3 473 366.7 417 400 412C433.3 407 466.7 453 500 467C533.3 481 566.7 463 600 457C633.3 451 666.7 457 700 468C733.3 479 766.7 495 800 509C833.3 523 866.7 535 883.3 541L900 547L900 287L883.3 287C866.7 287 833.3 287 800 269C766.7 251 733.3 215 700 198C666.7 181 633.3 183 600 206C566.7 229 533.3 273 500 270C466.7 267 433.3 217 400 196C366.7 175 333.3 183 300 210C266.7 237 233.3 283 200 295C166.7 307 133.3 285 100 280C66.7 275 33.3 287 16.7 293L0 299Z" fill="#42acac"></path><path d="M0 601L16.7 601C33.3 601 66.7 601 100 601C133.3 601 166.7 601 200 601C233.3 601 266.7 601 300 601C333.3 601 366.7 601 400 601C433.3 601 466.7 601 500 601C533.3 601 566.7 601 600 601C633.3 601 666.7 601 700 601C733.3 601 766.7 601 800 601C833.3 601 866.7 601 883.3 601L900 601L900 545L883.3 539C866.7 533 833.3 521 800 507C766.7 493 733.3 477 700 466C666.7 455 633.3 449 600 455C566.7 461 533.3 479 500 465C466.7 451 433.3 405 400 410C366.7 415 333.3 471 300 476C266.7 481 233.3 435 200 412C166.7 389 133.3 389 100 396C66.7 403 33.3 417 16.7 424L0 431Z" fill="#389292"></path></svg>