<svg id="visual" viewBox="0 0 900 600" width="900" height="600" xmlns="http://www.w3.org/2000/svg" xmlns:xlink="http://www.w3.org/1999/xlink" version="1.1"><path d="M0 154L11.5 179.7C23 205.3 46 256.7 69 251.2C92 245.7 115 183.3 138.2 188.8C161.3 194.3 184.7 267.7 207.8 275C231 282.3 254 223.7 277 222.5C300 221.3 323 277.7 346 286C369 294.3 392 254.7 415.2 230.2C438.3 205.7 461.7 196.3 484.8 212.3C508 228.3 531 269.7 554 263C577 256.3 600 201.7 623 186C646 170.3 669 193.7 692.2 223C715.3 252.3 738.7 287.7 761.8 291C785 294.3 808 265.7 831 236C854 206.3 877 175.7 888.5 160.3L900 145L900 601L888.5 601C877 601 854 601 831 601C808 601 785 601 761.8 601C738.7 601 715.3 601 692.2 601C669 601 646 601 623 601C600 601 577 601 554 601C531 601 508 601 484.8 601C461.7 601 438.3 601 415.2 601C392 601 369 601 346 601C323 601 300 601 277 601C254 601 231 601 207.8 601C184.7 601 161.3 601 138.2 601C115 601 92 601 69 601C46 601 23 601 11.5 601L0 601Z" fill="#8dd8d8"></path><path d="M0 227L11.5 227.2C23 227.3 46 227.7 69 242C92 256.3 115 284.7 138.2 302.8C161.3 321 184.7 329 207.8 331.5C231 334 254 331 277 311.8C300 292.7 323 257.3 346 257.5C369 257.7 392 293.3 415.2 308C438.3 322.7 461.7 316.3 484.8 298.3C508 280.3 531 250.7 554 264.8C577 279 600 337 623 355.5C646 374 669 353 692.2 326.7C715.3 300.3 738.7 268.7 761.8 272.5C785 276.3 808 315.7 831 312.8C854 310 877 265 888.5 242.5L900 220L900 601L888.5 601C877 601 854 601 831 601C808 601 785 601 761.8 601C738.7 601 715.3 601 692.2 601C669 601 646 601 623 601C600 601 577 601 554 601C531 601 508 601 484.8 601C461.7 601 438.3 601 415.2 601C392 601 369 601 346 601C323 601 300 601 277 601C254 601 231 601 207.8 601C184.7 601 161.3 601 138.2 601C115 601 92 601 69 601C46 601 23 601 11.5 601L0 601Z" fill="#65cccd"></path><path d="M0 434L11.5 416.2C23 398.3 46 362.7 69 344.2C92 325.7 115 324.3 138.2 332.3C161.3 340.3 184.7 357.7 207.8 372.8C231 388 254 401 277 401C300 401 323 388 346 396.5C369 405 392 435 415.2 447.5C438.3 460 461.7 455 484.8 441.5C508 428 531 406 554 392.8C577 379.7 600 375.3 623 382.5C646 389.7 669 408.3 692.2 399.7C715.3 391 738.7 355 761.8 338.5C785 322 808 325 831 331.2C854 337.3 877 346.7 888.5 351.3L900 356L900 601L888.5 601C877 601 854 601 831 601C808 601 785 601 761.8 601C738.7 601 715.3 601 692.2 601C669 601 646 601 623 601C600 601 577 601 554 601C531 601 508 601 484.8 601C461.7 601 438.3 601 415.2 601C392 601 369 601 346 601C323 601 300 601 277 601C254 601 231 601 207.8 601C184.7 601 161.3 601 138.2 601C115 601 92 601 69 601C46 601 23 601 11.5 601L0 601Z" fill="#46b4b5"></path><path d="M0 502L11.5 492.5C23 483 46 464 69 464.8C92 465.7 115 486.3 138.2 495.3C161.3 504.3 184.7 501.7 207.8 488.3C231 475 254 451 277 453.8C300 456.7 323 486.3 346 486C369 485.7 392 455.3 415.2 448.2C438.3 441 461.7 457 484.8 466.8C508 476.7 531 480.3 554 484C577 487.7 600 491.3 623 491.5C646 491.7 669 488.3 692.2 490.5C715.3 492.7 738.7 500.3 761.8 499.5C785 498.7 808 489.3 831 489.3C854 489.3 877 498.7 888.5 503.3L900 508L900 601L888.5 601C877 601 854 601 831 601C808 601 785 601 761.8 601C738.7 601 715.3 601 692.2 601C669 601 646 601 623 601C600 601 577 601 554 601C531 601 508 601 484.8 601C461.7 601 438.3 601 415.2 601C392 601 369 601 346 601C323 601 300 601 277 601C254 601 231 601 207.8 601C184.7 601 161.3 601 138.2 601C115 601 92 601 69 601C46 601 23 601 11.5 601L0 601Z" fill="#389292"></path></svg>